<?xml version="1.0" encoding="UTF-8" standalone="no"?>
<!DOCTYPE svg PUBLIC "-//W3C//DTD SVG 1.1//EN"
 "http://www.w3.org/Graphics/SVG/1.1/DTD/svg11.dtd">
<!-- Generated by graphviz version 14.1.4 (20260321.0153)
 -->
<!-- Title: snakemake_dag Pages: 1 -->
<svg width="1834pt" height="476pt"
 viewBox="0.00 0.00 1834.00 476.00" xmlns="http://www.w3.org/2000/svg" xmlns:xlink="http://www.w3.org/1999/xlink">
<g id="graph0" class="graph" transform="scale(1 1) rotate(0) translate(4 472)">
<title>snakemake_dag</title>
<polygon fill="white" stroke="none" points="-4,4 -4,-472 1830.25,-472 1830.25,4 -4,4"/>
<!-- 0 -->
<g id="node1" class="node">
<title>0</title>
<path fill="none" stroke="#d88d56" stroke-width="2" d="M641.25,-36C641.25,-36 611.25,-36 611.25,-36 605.25,-36 599.25,-30 599.25,-24 599.25,-24 599.25,-12 599.25,-12 599.25,-6 605.25,0 611.25,0 611.25,0 641.25,0 641.25,0 647.25,0 653.25,-6 653.25,-12 653.25,-12 653.25,-24 653.25,-24 653.25,-30 647.25,-36 641.25,-36"/>
<text xml:space="preserve" text-anchor="middle" x="626.25" y="-14.12" font-family="sans" font-size="10.00">all</text>
</g>
<!-- 1 -->
<g id="node2" class="node">
<title>1</title>
<path fill="none" stroke="#56d89a" stroke-width="2" d="M921,-396C921,-396 867.5,-396 867.5,-396 861.5,-396 855.5,-390 855.5,-384 855.5,-384 855.5,-372 855.5,-372 855.5,-366 861.5,-360 867.5,-360 867.5,-360 921,-360 921,-360 927,-360 933,-366 933,-372 933,-372 933,-384 933,-384 933,-390 927,-396 921,-396"/>
<text xml:space="preserve" text-anchor="middle" x="894.25" y="-374.12" font-family="sans" font-size="10.00">create_raw_fc</text>
</g>
<!-- 9 -->
<g id="node10" class="node">
<title>9</title>
<path fill="none" stroke="#d8cb56" stroke-width="2" d="M656.88,-324C656.88,-324 557.62,-324 557.62,-324 551.62,-324 545.62,-318 545.62,-312 545.62,-312 545.62,-300 545.62,-300 545.62,-294 551.62,-288 557.62,-288 557.62,-288 656.88,-288 656.88,-288 662.88,-288 668.88,-294 668.88,-300 668.88,-300 668.88,-312 668.88,-312 668.88,-318 662.88,-324 656.88,-324"/>
<text xml:space="preserve" text-anchor="middle" x="607.25" y="-302.12" font-family="sans" font-size="10.00">calculate_avg_clustering</text>
</g>
<!-- 1&#45;&gt;9 -->
<g id="edge19" class="edge">
<title>1&#45;&gt;9</title>
<path fill="none" stroke="grey" stroke-width="2" d="M854.65,-367.34C810.35,-356.54 737.59,-338.79 682.41,-325.33"/>
<polygon fill="grey" stroke="grey" stroke-width="2" points="683.34,-321.96 672.8,-322.99 681.68,-328.76 683.34,-321.96"/>
</g>
<!-- 10 -->
<g id="node11" class="node">
<title>10</title>
<path fill="none" stroke="#88d856" stroke-width="2" d="M807.75,-324C807.75,-324 698.75,-324 698.75,-324 692.75,-324 686.75,-318 686.75,-312 686.75,-312 686.75,-300 686.75,-300 686.75,-294 692.75,-288 698.75,-288 698.75,-288 807.75,-288 807.75,-288 813.75,-288 819.75,-294 819.75,-300 819.75,-300 819.75,-312 819.75,-312 819.75,-318 813.75,-324 807.75,-324"/>
<text xml:space="preserve" text-anchor="middle" x="753.25" y="-302.12" font-family="sans" font-size="10.00">calculate_global_efficiency</text>
</g>
<!-- 1&#45;&gt;10 -->
<g id="edge21" class="edge">
<title>1&#45;&gt;10</title>
<path fill="none" stroke="grey" stroke-width="2" d="M858.3,-359.15C840.82,-350.47 819.57,-339.92 800.77,-330.59"/>
<polygon fill="grey" stroke="grey" stroke-width="2" points="802.35,-327.47 791.84,-326.16 799.24,-333.74 802.35,-327.47"/>
</g>
<!-- 11 -->
<g id="node12" class="node">
<title>11</title>
<path fill="none" stroke="#d8b456" stroke-width="2" d="M1120,-324C1120,-324 1030.5,-324 1030.5,-324 1024.5,-324 1018.5,-318 1018.5,-312 1018.5,-312 1018.5,-300 1018.5,-300 1018.5,-294 1024.5,-288 1030.5,-288 1030.5,-288 1120,-288 1120,-288 1126,-288 1132,-294 1132,-300 1132,-300 1132,-312 1132,-312 1132,-318 1126,-324 1120,-324"/>
<text xml:space="preserve" text-anchor="middle" x="1075.25" y="-302.12" font-family="sans" font-size="10.00">calculate_assortativity</text>
</g>
<!-- 1&#45;&gt;11 -->
<g id="edge23" class="edge">
<title>1&#45;&gt;11</title>
<path fill="none" stroke="grey" stroke-width="2" d="M933.97,-361.64C958.25,-352.25 989.73,-340.07 1016.81,-329.6"/>
<polygon fill="grey" stroke="grey" stroke-width="2" points="1018.02,-332.89 1026.08,-326.02 1015.49,-326.36 1018.02,-332.89"/>
</g>
<!-- 12 -->
<g id="node13" class="node">
<title>12</title>
<path fill="none" stroke="#61d856" stroke-width="2" d="M226.12,-324C226.12,-324 104.38,-324 104.38,-324 98.38,-324 92.38,-318 92.38,-312 92.38,-312 92.38,-300 92.38,-300 92.38,-294 98.38,-288 104.38,-288 104.38,-288 226.12,-288 226.12,-288 232.12,-288 238.12,-294 238.12,-300 238.12,-300 238.12,-312 238.12,-312 238.12,-318 232.12,-324 226.12,-324"/>
<text xml:space="preserve" text-anchor="middle" x="165.25" y="-302.12" font-family="sans" font-size="10.00">calculate_robustness_random</text>
</g>
<!-- 1&#45;&gt;12 -->
<g id="edge25" class="edge">
<title>1&#45;&gt;12</title>
<path fill="none" stroke="grey" stroke-width="2" d="M854.67,-375.45C755.09,-371.19 485.89,-357.45 251.82,-324.56"/>
<polygon fill="grey" stroke="grey" stroke-width="2" points="252.32,-321.09 241.93,-323.15 251.34,-328.02 252.32,-321.09"/>
</g>
<!-- 13 -->
<g id="node14" class="node">
<title>13</title>
<path fill="none" stroke="#56d863" stroke-width="2" d="M392.62,-324C392.62,-324 267.88,-324 267.88,-324 261.88,-324 255.88,-318 255.88,-312 255.88,-312 255.88,-300 255.88,-300 255.88,-294 261.88,-288 267.88,-288 267.88,-288 392.62,-288 392.62,-288 398.62,-288 404.62,-294 404.62,-300 404.62,-300 404.62,-312 404.62,-312 404.62,-318 398.62,-324 392.62,-324"/>
<text xml:space="preserve" text-anchor="middle" x="330.25" y="-302.12" font-family="sans" font-size="10.00">calculate_robustness_targeted</text>
</g>
<!-- 1&#45;&gt;13 -->
<g id="edge27" class="edge">
<title>1&#45;&gt;13</title>
<path fill="none" stroke="grey" stroke-width="2" d="M854.81,-373.9C774.5,-367.31 586.03,-350.5 418.12,-324.69"/>
<polygon fill="grey" stroke="grey" stroke-width="2" points="418.71,-321.24 408.29,-323.16 417.63,-328.15 418.71,-321.24"/>
</g>
<!-- 14 -->
<g id="node15" class="node">
<title>14</title>
<path fill="none" stroke="#70d856" stroke-width="2" d="M515.88,-324C515.88,-324 434.62,-324 434.62,-324 428.62,-324 422.62,-318 422.62,-312 422.62,-312 422.62,-300 422.62,-300 422.62,-294 428.62,-288 434.62,-288 434.62,-288 515.88,-288 515.88,-288 521.88,-288 527.88,-294 527.88,-300 527.88,-300 527.88,-312 527.88,-312 527.88,-318 521.88,-324 515.88,-324"/>
<text xml:space="preserve" text-anchor="middle" x="475.25" y="-302.12" font-family="sans" font-size="10.00">calculate_modularity</text>
</g>
<!-- 1&#45;&gt;14 -->
<g id="edge29" class="edge">
<title>1&#45;&gt;14</title>
<path fill="none" stroke="grey" stroke-width="2" d="M854.76,-372.79C790.75,-365.61 660.19,-349.51 541.29,-324.95"/>
<polygon fill="grey" stroke="grey" stroke-width="2" points="542.18,-321.56 531.68,-322.93 540.75,-328.41 542.18,-321.56"/>
</g>
<!-- 15 -->
<g id="node16" class="node">
<title>15</title>
<path fill="none" stroke="#d8a456" stroke-width="2" d="M988.75,-324C988.75,-324 849.75,-324 849.75,-324 843.75,-324 837.75,-318 837.75,-312 837.75,-312 837.75,-300 837.75,-300 837.75,-294 843.75,-288 849.75,-288 849.75,-288 988.75,-288 988.75,-288 994.75,-288 1000.75,-294 1000.75,-300 1000.75,-300 1000.75,-312 1000.75,-312 1000.75,-318 994.75,-324 988.75,-324"/>
<text xml:space="preserve" text-anchor="middle" x="919.25" y="-302.12" font-family="sans" font-size="10.00">calculate_abs_mean_connectivity</text>
</g>
<!-- 1&#45;&gt;15 -->
<g id="edge30" class="edge">
<title>1&#45;&gt;15</title>
<path fill="none" stroke="grey" stroke-width="2" d="M900.56,-359.34C902.97,-352.59 905.79,-344.69 908.5,-337.11"/>
<polygon fill="grey" stroke="grey" stroke-width="2" points="911.77,-338.35 911.84,-327.75 905.18,-335.99 911.77,-338.35"/>
</g>
<!-- 19 -->
<g id="node20" class="node">
<title>19</title>
<path fill="none" stroke="#bed856" stroke-width="2" d="M1300.75,-324C1300.75,-324 1161.75,-324 1161.75,-324 1155.75,-324 1149.75,-318 1149.75,-312 1149.75,-312 1149.75,-300 1149.75,-300 1149.75,-294 1155.75,-288 1161.75,-288 1161.75,-288 1300.75,-288 1300.75,-288 1306.75,-288 1312.75,-294 1312.75,-300 1312.75,-300 1312.75,-312 1312.75,-312 1312.75,-318 1306.75,-324 1300.75,-324"/>
<text xml:space="preserve" text-anchor="middle" x="1231.25" y="-302.12" font-family="sans" font-size="10.00">calculate_betweenness_centrality</text>
</g>
<!-- 1&#45;&gt;19 -->
<g id="edge38" class="edge">
<title>1&#45;&gt;19</title>
<path fill="none" stroke="grey" stroke-width="2" d="M933.9,-368.76C983.34,-358.49 1069.51,-340.6 1136.4,-326.7"/>
<polygon fill="grey" stroke="grey" stroke-width="2" points="1137.03,-330.15 1146.11,-324.68 1135.61,-323.29 1137.03,-330.15"/>
</g>
<!-- 20 -->
<g id="node21" class="node">
<title>20</title>
<path fill="none" stroke="#97d856" stroke-width="2" d="M1453.5,-324C1453.5,-324 1343,-324 1343,-324 1337,-324 1331,-318 1331,-312 1331,-312 1331,-300 1331,-300 1331,-294 1337,-288 1343,-288 1343,-288 1453.5,-288 1453.5,-288 1459.5,-288 1465.5,-294 1465.5,-300 1465.5,-300 1465.5,-312 1465.5,-312 1465.5,-318 1459.5,-324 1453.5,-324"/>
<text xml:space="preserve" text-anchor="middle" x="1398.25" y="-302.12" font-family="sans" font-size="10.00">calculate_degree_centrality</text>
</g>
<!-- 1&#45;&gt;20 -->
<g id="edge40" class="edge">
<title>1&#45;&gt;20</title>
<path fill="none" stroke="grey" stroke-width="2" d="M933.97,-373.38C1007.65,-366.38 1170.66,-349.6 1317.56,-324.72"/>
<polygon fill="grey" stroke="grey" stroke-width="2" points="1318.11,-328.18 1327.38,-323.04 1316.93,-321.28 1318.11,-328.18"/>
</g>
<!-- 21 -->
<g id="node22" class="node">
<title>21</title>
<path fill="none" stroke="#afd856" stroke-width="2" d="M1624.5,-324C1624.5,-324 1496,-324 1496,-324 1490,-324 1484,-318 1484,-312 1484,-312 1484,-300 1484,-300 1484,-294 1490,-288 1496,-288 1496,-288 1624.5,-288 1624.5,-288 1630.5,-288 1636.5,-294 1636.5,-300 1636.5,-300 1636.5,-312 1636.5,-312 1636.5,-318 1630.5,-324 1624.5,-324"/>
<text xml:space="preserve" text-anchor="middle" x="1560.25" y="-302.12" font-family="sans" font-size="10.00">calculate_clustering_coefficient</text>
</g>
<!-- 1&#45;&gt;21 -->
<g id="edge42" class="edge">
<title>1&#45;&gt;21</title>
<path fill="none" stroke="grey" stroke-width="2" d="M933.8,-374.81C1025.96,-369.4 1262.37,-353.78 1470.69,-324.41"/>
<polygon fill="grey" stroke="grey" stroke-width="2" points="1471.02,-327.9 1480.43,-323.03 1470.03,-320.97 1471.02,-327.9"/>
</g>
<!-- 22 -->
<g id="node23" class="node">
<title>22</title>
<path fill="none" stroke="#d6d856" stroke-width="2" d="M1814.25,-324C1814.25,-324 1666.25,-324 1666.25,-324 1660.25,-324 1654.25,-318 1654.25,-312 1654.25,-312 1654.25,-300 1654.25,-300 1654.25,-294 1660.25,-288 1666.25,-288 1666.25,-288 1814.25,-288 1814.25,-288 1820.25,-288 1826.25,-294 1826.25,-300 1826.25,-300 1826.25,-312 1826.25,-312 1826.25,-318 1820.25,-324 1814.25,-324"/>
<text xml:space="preserve" text-anchor="middle" x="1740.25" y="-302.12" font-family="sans" font-size="10.00">calculate_avg_shortest_path_length</text>
</g>
<!-- 1&#45;&gt;22 -->
<g id="edge44" class="edge">
<title>1&#45;&gt;22</title>
<path fill="none" stroke="grey" stroke-width="2" d="M933.89,-375.69C1044.25,-371.74 1364.59,-358.1 1640.64,-324.5"/>
<polygon fill="grey" stroke="grey" stroke-width="2" points="1640.83,-328 1650.33,-323.31 1639.97,-321.06 1640.83,-328"/>
</g>
<!-- 2 -->
<g id="node3" class="node">
<title>2</title>
<path fill="none" stroke="#56d88a" stroke-width="2" d="M843.25,-468C843.25,-468 779.25,-468 779.25,-468 773.25,-468 767.25,-462 767.25,-456 767.25,-456 767.25,-444 767.25,-444 767.25,-438 773.25,-432 779.25,-432 779.25,-432 843.25,-432 843.25,-432 849.25,-432 855.25,-438 855.25,-444 855.25,-444 855.25,-456 855.25,-456 855.25,-462 849.25,-468 843.25,-468"/>
<text xml:space="preserve" text-anchor="middle" x="811.25" y="-446.12" font-family="sans" font-size="10.00">create_networks</text>
</g>
<!-- 2&#45;&gt;1 -->
<g id="edge4" class="edge">
<title>2&#45;&gt;1</title>
<path fill="none" stroke="grey" stroke-width="2" d="M832.19,-431.34C841.56,-423.44 852.79,-413.96 863.11,-405.26"/>
<polygon fill="grey" stroke="grey" stroke-width="2" points="865.32,-407.98 870.71,-398.85 860.81,-402.62 865.32,-407.98"/>
</g>
<!-- 6 -->
<g id="node7" class="node">
<title>6</title>
<path fill="none" stroke="#56d8a9" stroke-width="2" d="M121.5,-396C121.5,-396 35,-396 35,-396 29,-396 23,-390 23,-384 23,-384 23,-372 23,-372 23,-366 29,-360 35,-360 35,-360 121.5,-360 121.5,-360 127.5,-360 133.5,-366 133.5,-372 133.5,-372 133.5,-384 133.5,-384 133.5,-390 127.5,-396 121.5,-396"/>
<text xml:space="preserve" text-anchor="middle" x="78.25" y="-374.12" font-family="sans" font-size="10.00">create_windowed_fcs</text>
</g>
<!-- 2&#45;&gt;6 -->
<g id="edge8" class="edge">
<title>2&#45;&gt;6</title>
<path fill="none" stroke="grey" stroke-width="2" d="M766.5,-444.73C642.87,-432.92 295.97,-399.79 147.3,-385.59"/>
<polygon fill="grey" stroke="grey" stroke-width="2" points="147.7,-382.12 137.41,-384.65 147.03,-389.08 147.7,-382.12"/>
</g>
<!-- 2&#45;&gt;9 -->
<g id="edge18" class="edge">
<title>2&#45;&gt;9</title>
<path fill="none" stroke="grey" stroke-width="2" d="M785.41,-431.02C749.47,-406 684.21,-360.57 643.43,-332.19"/>
<polygon fill="grey" stroke="grey" stroke-width="2" points="645.57,-329.41 635.36,-326.57 641.57,-335.15 645.57,-329.41"/>
</g>
<!-- 2&#45;&gt;10 -->
<g id="edge20" class="edge">
<title>2&#45;&gt;10</title>
<path fill="none" stroke="grey" stroke-width="2" d="M803.9,-431.02C794.23,-407.33 777.08,-365.35 765.45,-336.86"/>
<polygon fill="grey" stroke="grey" stroke-width="2" points="768.7,-335.57 761.68,-327.64 762.22,-338.22 768.7,-335.57"/>
</g>
<!-- 2&#45;&gt;11 -->
<g id="edge22" class="edge">
<title>2&#45;&gt;11</title>
<path fill="none" stroke="grey" stroke-width="2" d="M856.24,-433.41C882,-423.85 914.61,-410.64 942.25,-396 977.48,-377.34 1015.01,-351.63 1041.18,-332.65"/>
<polygon fill="grey" stroke="grey" stroke-width="2" points="1043.23,-335.48 1049.22,-326.75 1039.09,-329.84 1043.23,-335.48"/>
</g>
<!-- 2&#45;&gt;12 -->
<g id="edge24" class="edge">
<title>2&#45;&gt;12</title>
<path fill="none" stroke="grey" stroke-width="2" d="M766.38,-443.38C702.93,-435.07 583.53,-418.06 483.25,-396 396.51,-376.92 298.29,-348.34 234.26,-328.74"/>
<polygon fill="grey" stroke="grey" stroke-width="2" points="235.4,-325.43 224.81,-325.84 233.34,-332.12 235.4,-325.43"/>
</g>
<!-- 2&#45;&gt;13 -->
<g id="edge26" class="edge">
<title>2&#45;&gt;13</title>
<path fill="none" stroke="grey" stroke-width="2" d="M766.52,-438.92C723.23,-428.92 655.89,-412.72 598.25,-396 527.05,-375.35 446.45,-348.04 392.4,-329.15"/>
<polygon fill="grey" stroke="grey" stroke-width="2" points="393.72,-325.9 383.13,-325.89 391.41,-332.51 393.72,-325.9"/>
</g>
<!-- 2&#45;&gt;14 -->
<g id="edge28" class="edge">
<title>2&#45;&gt;14</title>
<path fill="none" stroke="grey" stroke-width="2" d="M766.63,-431.08C741.5,-420.91 709.57,-407.89 681.25,-396 628.94,-374.04 569.48,-348.26 527.94,-330.12"/>
<polygon fill="grey" stroke="grey" stroke-width="2" points="529.52,-326.99 518.96,-326.19 526.72,-333.41 529.52,-326.99"/>
</g>
<!-- 2&#45;&gt;19 -->
<g id="edge37" class="edge">
<title>2&#45;&gt;19</title>
<path fill="none" stroke="grey" stroke-width="2" d="M856.25,-435.87C891.27,-425.49 941.04,-410.4 984.25,-396 1048.63,-374.55 1121.67,-347.95 1171.52,-329.44"/>
<polygon fill="grey" stroke="grey" stroke-width="2" points="1172.69,-332.74 1180.84,-325.97 1170.25,-326.18 1172.69,-332.74"/>
</g>
<!-- 2&#45;&gt;20 -->
<g id="edge39" class="edge">
<title>2&#45;&gt;20</title>
<path fill="none" stroke="grey" stroke-width="2" d="M856.09,-439.44C904,-429.13 982.14,-412.03 1049.25,-396 1141.77,-373.91 1247.56,-346.65 1318.19,-328.16"/>
<polygon fill="grey" stroke="grey" stroke-width="2" points="1318.8,-331.62 1327.59,-325.69 1317.03,-324.84 1318.8,-331.62"/>
</g>
<!-- 2&#45;&gt;21 -->
<g id="edge41" class="edge">
<title>2&#45;&gt;21</title>
<path fill="none" stroke="grey" stroke-width="2" d="M856.17,-442.3C918.82,-432.8 1035.93,-414.51 1135.25,-396 1251.5,-374.33 1384.86,-345.8 1470.71,-326.95"/>
<polygon fill="grey" stroke="grey" stroke-width="2" points="1471.32,-330.4 1480.33,-324.84 1469.81,-323.57 1471.32,-330.4"/>
</g>
<!-- 2&#45;&gt;22 -->
<g id="edge43" class="edge">
<title>2&#45;&gt;22</title>
<path fill="none" stroke="grey" stroke-width="2" d="M856.13,-444.18C933.9,-435.65 1098.69,-416.83 1237.25,-396 1415.16,-369.25 1461.83,-356.79 1640.47,-324.86"/>
<polygon fill="grey" stroke="grey" stroke-width="2" points="1641.07,-328.3 1650.3,-323.1 1639.84,-321.41 1641.07,-328.3"/>
</g>
<!-- 3 -->
<g id="node4" class="node">
<title>3</title>
<path fill="none" stroke="#56b9d8" stroke-width="2" d="M518.88,-108C518.88,-108 479.62,-108 479.62,-108 473.62,-108 467.62,-102 467.62,-96 467.62,-96 467.62,-84 467.62,-84 467.62,-78 473.62,-72 479.62,-72 479.62,-72 518.88,-72 518.88,-72 524.88,-72 530.88,-78 530.88,-84 530.88,-84 530.88,-96 530.88,-96 530.88,-102 524.88,-108 518.88,-108"/>
<text xml:space="preserve" text-anchor="middle" x="499.25" y="-86.12" font-family="sans" font-size="10.00">plot_FCDs</text>
</g>
<!-- 3&#45;&gt;0 -->
<g id="edge3" class="edge">
<title>3&#45;&gt;0</title>
<path fill="none" stroke="grey" stroke-width="2" d="M531.63,-71.15C548.63,-61.78 569.58,-50.23 587.45,-40.39"/>
<polygon fill="grey" stroke="grey" stroke-width="2" points="588.95,-43.56 596.02,-35.66 585.57,-37.43 588.95,-43.56"/>
</g>
<!-- 4 -->
<g id="node5" class="node">
<title>4</title>
<path fill="none" stroke="#d85656" stroke-width="2" d="M289.38,-252C289.38,-252 223.12,-252 223.12,-252 217.12,-252 211.12,-246 211.12,-240 211.12,-240 211.12,-228 211.12,-228 211.12,-222 217.12,-216 223.12,-216 223.12,-216 289.38,-216 289.38,-216 295.38,-216 301.38,-222 301.38,-228 301.38,-228 301.38,-240 301.38,-240 301.38,-246 295.38,-252 289.38,-252"/>
<text xml:space="preserve" text-anchor="middle" x="256.25" y="-230.12" font-family="sans" font-size="10.00">aggregate_FCDs</text>
</g>
<!-- 4&#45;&gt;3 -->
<g id="edge5" class="edge">
<title>4&#45;&gt;3</title>
<path fill="none" stroke="grey" stroke-width="2" d="M287.03,-215.02C330.3,-189.73 409.24,-143.6 457.69,-115.28"/>
<polygon fill="grey" stroke="grey" stroke-width="2" points="459.24,-118.43 466.11,-110.37 455.71,-112.39 459.24,-118.43"/>
</g>
<!-- 5 -->
<g id="node6" class="node">
<title>5</title>
<path fill="none" stroke="#56d873" stroke-width="2" d="M62.5,-324C62.5,-324 12,-324 12,-324 6,-324 0,-318 0,-312 0,-312 0,-300 0,-300 0,-294 6,-288 12,-288 12,-288 62.5,-288 62.5,-288 68.5,-288 74.5,-294 74.5,-300 74.5,-300 74.5,-312 74.5,-312 74.5,-318 68.5,-324 62.5,-324"/>
<text xml:space="preserve" text-anchor="middle" x="37.25" y="-302.12" font-family="sans" font-size="10.00">create_FCDs</text>
</g>
<!-- 5&#45;&gt;4 -->
<g id="edge6" class="edge">
<title>5&#45;&gt;4</title>
<path fill="none" stroke="grey" stroke-width="2" d="M75.34,-290.73C78.01,-289.79 80.67,-288.87 83.25,-288 121.12,-275.21 164.08,-262.04 197.72,-252.03"/>
<polygon fill="grey" stroke="grey" stroke-width="2" points="198.63,-255.41 207.23,-249.22 196.64,-248.7 198.63,-255.41"/>
</g>
<!-- 6&#45;&gt;5 -->
<g id="edge7" class="edge">
<title>6&#45;&gt;5</title>
<path fill="none" stroke="grey" stroke-width="2" d="M67.9,-359.34C63.76,-352.26 58.88,-343.92 54.24,-336"/>
<polygon fill="grey" stroke="grey" stroke-width="2" points="57.34,-334.37 49.27,-327.51 51.3,-337.91 57.34,-334.37"/>
</g>
<!-- 7 -->
<g id="node8" class="node">
<title>7</title>
<path fill="none" stroke="#56a2d8" stroke-width="2" d="M664.25,-108C664.25,-108 588.25,-108 588.25,-108 582.25,-108 576.25,-102 576.25,-96 576.25,-96 576.25,-84 576.25,-84 576.25,-78 582.25,-72 588.25,-72 588.25,-72 664.25,-72 664.25,-72 670.25,-72 676.25,-78 676.25,-84 676.25,-84 676.25,-96 676.25,-96 676.25,-102 670.25,-108 664.25,-108"/>
<text xml:space="preserve" text-anchor="middle" x="626.25" y="-86.12" font-family="sans" font-size="10.00">plot_global_metrics</text>
</g>
<!-- 7&#45;&gt;0 -->
<g id="edge1" class="edge">
<title>7&#45;&gt;0</title>
<path fill="none" stroke="grey" stroke-width="2" d="M626.25,-71.34C626.25,-64.75 626.25,-57.08 626.25,-49.67"/>
<polygon fill="grey" stroke="grey" stroke-width="2" points="629.75,-49.93 626.25,-39.93 622.75,-49.93 629.75,-49.93"/>
</g>
<!-- 8 -->
<g id="node9" class="node">
<title>8</title>
<path fill="none" stroke="#d86656" stroke-width="2" d="M658.75,-252C658.75,-252 555.75,-252 555.75,-252 549.75,-252 543.75,-246 543.75,-240 543.75,-240 543.75,-228 543.75,-228 543.75,-222 549.75,-216 555.75,-216 555.75,-216 658.75,-216 658.75,-216 664.75,-216 670.75,-222 670.75,-228 670.75,-228 670.75,-240 670.75,-240 670.75,-246 664.75,-252 658.75,-252"/>
<text xml:space="preserve" text-anchor="middle" x="607.25" y="-230.12" font-family="sans" font-size="10.00">aggregate_global_metrics</text>
</g>
<!-- 8&#45;&gt;7 -->
<g id="edge10" class="edge">
<title>8&#45;&gt;7</title>
<path fill="none" stroke="grey" stroke-width="2" d="M594.51,-215.06C583.29,-196.94 570.05,-168.23 579.25,-144 582.83,-134.57 588.94,-125.74 595.6,-118.09"/>
<polygon fill="grey" stroke="grey" stroke-width="2" points="598.03,-120.61 602.4,-110.96 592.97,-115.78 598.03,-120.61"/>
</g>
<!-- 16 -->
<g id="node17" class="node">
<title>16</title>
<path fill="none" stroke="#56d8c1" stroke-width="2" d="M705.88,-180C705.88,-180 600.62,-180 600.62,-180 594.62,-180 588.62,-174 588.62,-168 588.62,-168 588.62,-156 588.62,-156 588.62,-150 594.62,-144 600.62,-144 600.62,-144 705.88,-144 705.88,-144 711.88,-144 717.88,-150 717.88,-156 717.88,-156 717.88,-168 717.88,-168 717.88,-174 711.88,-180 705.88,-180"/>
<text xml:space="preserve" text-anchor="middle" x="653.25" y="-158.12" font-family="sans" font-size="10.00">global_metric_comparison</text>
</g>
<!-- 8&#45;&gt;16 -->
<g id="edge31" class="edge">
<title>8&#45;&gt;16</title>
<path fill="none" stroke="grey" stroke-width="2" d="M618.86,-215.34C623.56,-208.18 629.12,-199.73 634.37,-191.73"/>
<polygon fill="grey" stroke="grey" stroke-width="2" points="637.26,-193.71 639.82,-183.43 631.41,-189.87 637.26,-193.71"/>
</g>
<!-- 9&#45;&gt;8 -->
<g id="edge16" class="edge">
<title>9&#45;&gt;8</title>
<path fill="none" stroke="grey" stroke-width="2" d="M607.25,-287.34C607.25,-280.75 607.25,-273.08 607.25,-265.67"/>
<polygon fill="grey" stroke="grey" stroke-width="2" points="610.75,-265.93 607.25,-255.93 603.75,-265.93 610.75,-265.93"/>
</g>
<!-- 10&#45;&gt;8 -->
<g id="edge14" class="edge">
<title>10&#45;&gt;8</title>
<path fill="none" stroke="grey" stroke-width="2" d="M716.03,-287.15C697.91,-278.47 675.88,-267.91 656.4,-258.56"/>
<polygon fill="grey" stroke="grey" stroke-width="2" points="657.92,-255.41 647.38,-254.24 654.89,-261.72 657.92,-255.41"/>
</g>
<!-- 11&#45;&gt;8 -->
<g id="edge15" class="edge">
<title>11&#45;&gt;8</title>
<path fill="none" stroke="grey" stroke-width="2" d="M1017.57,-289.51C1015.1,-288.98 1012.65,-288.47 1010.25,-288 897.79,-265.99 765.85,-250.58 684.39,-242.25"/>
<polygon fill="grey" stroke="grey" stroke-width="2" points="684.83,-238.77 674.53,-241.25 684.12,-245.74 684.83,-238.77"/>
</g>
<!-- 12&#45;&gt;8 -->
<g id="edge12" class="edge">
<title>12&#45;&gt;8</title>
<path fill="none" stroke="grey" stroke-width="2" d="M238.97,-289.51C241.76,-288.99 244.53,-288.48 247.25,-288 344.52,-270.77 457.27,-254.82 530.3,-245.01"/>
<polygon fill="grey" stroke="grey" stroke-width="2" points="530.56,-248.5 540.01,-243.71 529.64,-241.56 530.56,-248.5"/>
</g>
<!-- 13&#45;&gt;8 -->
<g id="edge17" class="edge">
<title>13&#45;&gt;8</title>
<path fill="none" stroke="grey" stroke-width="2" d="M401.22,-287.06C440.8,-277.06 490.11,-264.6 530.56,-254.38"/>
<polygon fill="grey" stroke="grey" stroke-width="2" points="531.32,-257.8 540.15,-251.96 529.6,-251.01 531.32,-257.8"/>
</g>
<!-- 14&#45;&gt;8 -->
<g id="edge11" class="edge">
<title>14&#45;&gt;8</title>
<path fill="none" stroke="grey" stroke-width="2" d="M508.9,-287.15C525.11,-278.56 544.79,-268.12 562.27,-258.85"/>
<polygon fill="grey" stroke="grey" stroke-width="2" points="563.79,-262.01 570.99,-254.23 560.51,-255.82 563.79,-262.01"/>
</g>
<!-- 15&#45;&gt;8 -->
<g id="edge13" class="edge">
<title>15&#45;&gt;8</title>
<path fill="none" stroke="grey" stroke-width="2" d="M839.31,-287.06C791.59,-276.36 731.31,-262.83 684.15,-252.25"/>
<polygon fill="grey" stroke="grey" stroke-width="2" points="685,-248.86 674.48,-250.08 683.47,-255.69 685,-248.86"/>
</g>
<!-- 16&#45;&gt;7 -->
<g id="edge9" class="edge">
<title>16&#45;&gt;7</title>
<path fill="none" stroke="grey" stroke-width="2" d="M646.44,-143.34C643.8,-136.51 640.71,-128.5 637.76,-120.83"/>
<polygon fill="grey" stroke="grey" stroke-width="2" points="641.11,-119.8 634.24,-111.73 634.58,-122.32 641.11,-119.8"/>
</g>
<!-- 17 -->
<g id="node18" class="node">
<title>17</title>
<path fill="none" stroke="#56d8d0" stroke-width="2" d="M1286.25,-180C1286.25,-180 1186.25,-180 1186.25,-180 1180.25,-180 1174.25,-174 1174.25,-168 1174.25,-168 1174.25,-156 1174.25,-156 1174.25,-150 1180.25,-144 1186.25,-144 1186.25,-144 1286.25,-144 1286.25,-144 1292.25,-144 1298.25,-150 1298.25,-156 1298.25,-156 1298.25,-168 1298.25,-168 1298.25,-174 1292.25,-180 1286.25,-180"/>
<text xml:space="preserve" text-anchor="middle" x="1236.25" y="-158.12" font-family="sans" font-size="10.00">local_metric_comparison</text>
</g>
<!-- 17&#45;&gt;0 -->
<g id="edge2" class="edge">
<title>17&#45;&gt;0</title>
<path fill="none" stroke="grey" stroke-width="2" d="M1173.27,-146.34C1048.02,-117.18 770.79,-52.65 666.75,-28.43"/>
<polygon fill="grey" stroke="grey" stroke-width="2" points="667.58,-25.03 657.05,-26.17 665.99,-31.84 667.58,-25.03"/>
</g>
<!-- 18 -->
<g id="node19" class="node">
<title>18</title>
<path fill="none" stroke="#d87d56" stroke-width="2" d="M1447.12,-252C1447.12,-252 1349.38,-252 1349.38,-252 1343.38,-252 1337.38,-246 1337.38,-240 1337.38,-240 1337.38,-228 1337.38,-228 1337.38,-222 1343.38,-216 1349.38,-216 1349.38,-216 1447.12,-216 1447.12,-216 1453.12,-216 1459.12,-222 1459.12,-228 1459.12,-228 1459.12,-240 1459.12,-240 1459.12,-246 1453.12,-252 1447.12,-252"/>
<text xml:space="preserve" text-anchor="middle" x="1398.25" y="-230.12" font-family="sans" font-size="10.00">aggregate_local_metrics</text>
</g>
<!-- 18&#45;&gt;17 -->
<g id="edge32" class="edge">
<title>18&#45;&gt;17</title>
<path fill="none" stroke="grey" stroke-width="2" d="M1356.95,-215.15C1336.47,-206.3 1311.48,-195.51 1289.56,-186.04"/>
<polygon fill="grey" stroke="grey" stroke-width="2" points="1291.1,-182.89 1280.53,-182.13 1288.32,-189.31 1291.1,-182.89"/>
</g>
<!-- 19&#45;&gt;18 -->
<g id="edge35" class="edge">
<title>19&#45;&gt;18</title>
<path fill="none" stroke="grey" stroke-width="2" d="M1273.82,-287.15C1295.04,-278.26 1320.94,-267.41 1343.6,-257.91"/>
<polygon fill="grey" stroke="grey" stroke-width="2" points="1344.8,-261.2 1352.67,-254.1 1342.1,-254.74 1344.8,-261.2"/>
</g>
<!-- 20&#45;&gt;18 -->
<g id="edge34" class="edge">
<title>20&#45;&gt;18</title>
<path fill="none" stroke="grey" stroke-width="2" d="M1398.25,-287.34C1398.25,-280.75 1398.25,-273.08 1398.25,-265.67"/>
<polygon fill="grey" stroke="grey" stroke-width="2" points="1401.75,-265.93 1398.25,-255.93 1394.75,-265.93 1401.75,-265.93"/>
</g>
<!-- 21&#45;&gt;18 -->
<g id="edge33" class="edge">
<title>21&#45;&gt;18</title>
<path fill="none" stroke="grey" stroke-width="2" d="M1518.95,-287.15C1498.47,-278.3 1473.48,-267.51 1451.56,-258.04"/>
<polygon fill="grey" stroke="grey" stroke-width="2" points="1453.1,-254.89 1442.53,-254.13 1450.32,-261.31 1453.1,-254.89"/>
</g>
<!-- 22&#45;&gt;18 -->
<g id="edge36" class="edge">
<title>22&#45;&gt;18</title>
<path fill="none" stroke="grey" stroke-width="2" d="M1653.51,-287.25C1597.63,-275.81 1525.75,-261.1 1472.51,-250.2"/>
<polygon fill="grey" stroke="grey" stroke-width="2" points="1473.55,-246.84 1463.05,-248.26 1472.15,-253.7 1473.55,-246.84"/>
</g>
</g>
</svg>
